# xmcd
#
# Track frame offsets:
# 150
# 13115
# 28710
# 46733
# 59413
# 70433
# 85421
# 103851
# 116478
# 127960
#
# Disc length: 1893 seconds
#
#
# Revision: 0
# Processed by: cddbd v1.5.2PL0 Copyright (c) Steve Scherf et al.
# Submitted via: FreeRIP 2.96 
#
DISCID=8607630a
DTITLE=Larry Gatlin and the Gatlin Brothers - love is just a game
DYEAR=2006
DGENRE=Country
TTITLE0=all the gold in california
TTITLE1=bitter thay are the harder thay fall
TTITLE2=love is just a game
TTITLE3=broken lady
TTITLE4=I dont want to cry
TTITLE5=I just wished you were someone I loved
TTITLE6=Ive done enough dyin today
TTITLE7=statues without hearts
TTITLE8=stand up
TTITLE9=houston
EXTD=
EXTT0=
EXTT1=
EXTT2=
EXTT3=
EXTT4=
EXTT5=
EXTT6=
EXTT7=
EXTT8=
EXTT9=
PLAYORDER=
